<svg xmlns="http://www.w3.org/2000/svg" viewBox="0 0 24 24" fill="currentColor">
  <path d="M4.5 3C3.1 3 2 4.1 2 5.5S3.1 8 4.5 8 7 6.9 7 5.5 5.9 3 4.5 3zM9 5.5C9 4.1 10.1 3 11.5 3S14 4.1 14 5.5 12.9 8 11.5 8 9 6.9 9 5.5zM5.5 10c-1.9 0-3.5 1.6-3.5 3.5 0 1.3.8 2.4 2 2.9v4.1c0 .8.7 1.5 1.5 1.5s1.5-.7 1.5-1.5v-4.1c1.2-.5 2-1.6 2-2.9C9 11.6 7.4 10 5.5 10zM16.5 3C15.1 3 14 4.1 14 5.5S15.1 8 16.5 8 19 6.9 19 5.5 17.9 3 16.5 3zM11 13.5c0-1.9 1.6-3.5 3.5-3.5S18 11.6 18 13.5c0 1.3-.8 2.4-2 2.9v4.1c0 .8-.7 1.5-1.5 1.5s-1.5-.7-1.5-1.5v-4.1c-1.2-.5-2-1.6-2-2.9z"/>
</svg>
